<?xml version="1.0" encoding="UTF-8"?>
<svg viewBox="-8 -8 992.0625 128.75" style="" xmlns:xlink="http://www.w3.org/1999/xlink" xmlns="http://www.w3.org/2000/svg" width="992.0625" id="mermaid-1773657404462" height="128.75"><style>#mermaid-1773657404462{font-family:"trebuchet ms",verdana,arial,sans-serif;font-size:16px;fill:#333;}#mermaid-1773657404462 .error-icon{fill:#552222;}#mermaid-1773657404462 .error-text{fill:#552222;stroke:#552222;}#mermaid-1773657404462 .edge-thickness-normal{stroke-width:2px;}#mermaid-1773657404462 .edge-thickness-thick{stroke-width:3.5px;}#mermaid-1773657404462 .edge-pattern-solid{stroke-dasharray:0;}#mermaid-1773657404462 .edge-pattern-dashed{stroke-dasharray:3;}#mermaid-1773657404462 .edge-pattern-dotted{stroke-dasharray:2;}#mermaid-1773657404462 .marker{fill:#333333;stroke:#333333;}#mermaid-1773657404462 .marker.cross{stroke:#333333;}#mermaid-1773657404462 svg{font-family:"trebuchet ms",verdana,arial,sans-serif;font-size:16px;}#mermaid-1773657404462 .label{font-family:"trebuchet ms",verdana,arial,sans-serif;color:#333;}#mermaid-1773657404462 .cluster-label text{fill:#333;}#mermaid-1773657404462 .cluster-label span,#mermaid-1773657404462 p{color:#333;}#mermaid-1773657404462 .label text,#mermaid-1773657404462 span,#mermaid-1773657404462 p{fill:#333;color:#333;}#mermaid-1773657404462 .node rect,#mermaid-1773657404462 .node circle,#mermaid-1773657404462 .node ellipse,#mermaid-1773657404462 .node polygon,#mermaid-1773657404462 .node path{fill:#ECECFF;stroke:#9370DB;stroke-width:1px;}#mermaid-1773657404462 .flowchart-label text{text-anchor:middle;}#mermaid-1773657404462 .node .katex path{fill:#000;stroke:#000;stroke-width:1px;}#mermaid-1773657404462 .node .label{text-align:center;}#mermaid-1773657404462 .node.clickable{cursor:pointer;}#mermaid-1773657404462 .arrowheadPath{fill:#333333;}#mermaid-1773657404462 .edgePath .path{stroke:#333333;stroke-width:2.0px;}#mermaid-1773657404462 .flowchart-link{stroke:#333333;fill:none;}#mermaid-1773657404462 .edgeLabel{background-color:#e8e8e8;text-align:center;}#mermaid-1773657404462 .edgeLabel rect{opacity:0.5;background-color:#e8e8e8;fill:#e8e8e8;}#mermaid-1773657404462 .labelBkg{background-color:#e8e8e8;}#mermaid-1773657404462 .cluster rect{fill:#ffffde;stroke:#aaaa33;stroke-width:1px;}#mermaid-1773657404462 .cluster text{fill:#333;}#mermaid-1773657404462 .cluster span,#mermaid-1773657404462 p{color:#333;}#mermaid-1773657404462 div.mermaidTooltip{position:absolute;text-align:center;max-width:200px;padding:2px;font-family:"trebuchet ms",verdana,arial,sans-serif;font-size:12px;background:hsl(80, 100%, 96.2745098039%);border:1px solid #aaaa33;border-radius:2px;pointer-events:none;z-index:100;}#mermaid-1773657404462 .flowchartTitleText{text-anchor:middle;font-size:18px;fill:#333;}#mermaid-1773657404462 :root{--mermaid-font-family:"trebuchet ms",verdana,arial,sans-serif;}</style><g><marker orient="auto" markerHeight="12" markerWidth="12" markerUnits="userSpaceOnUse" refY="5" refX="6" viewBox="0 0 10 10" class="marker flowchart" id="mermaid-1773657404462_flowchart-pointEnd"><path style="stroke-width: 1; stroke-dasharray: 1, 0;" class="arrowMarkerPath" d="M 0 0 L 10 5 L 0 10 z"></path></marker><marker orient="auto" markerHeight="12" markerWidth="12" markerUnits="userSpaceOnUse" refY="5" refX="4.5" viewBox="0 0 10 10" class="marker flowchart" id="mermaid-1773657404462_flowchart-pointStart"><path style="stroke-width: 1; stroke-dasharray: 1, 0;" class="arrowMarkerPath" d="M 0 5 L 10 10 L 10 0 z"></path></marker><marker orient="auto" markerHeight="11" markerWidth="11" markerUnits="userSpaceOnUse" refY="5" refX="11" viewBox="0 0 10 10" class="marker flowchart" id="mermaid-1773657404462_flowchart-circleEnd"><circle style="stroke-width: 1; stroke-dasharray: 1, 0;" class="arrowMarkerPath" r="5" cy="5" cx="5"></circle></marker><marker orient="auto" markerHeight="11" markerWidth="11" markerUnits="userSpaceOnUse" refY="5" refX="-1" viewBox="0 0 10 10" class="marker flowchart" id="mermaid-1773657404462_flowchart-circleStart"><circle style="stroke-width: 1; stroke-dasharray: 1, 0;" class="arrowMarkerPath" r="5" cy="5" cx="5"></circle></marker><marker orient="auto" markerHeight="11" markerWidth="11" markerUnits="userSpaceOnUse" refY="5.2" refX="12" viewBox="0 0 11 11" class="marker cross flowchart" id="mermaid-1773657404462_flowchart-crossEnd"><path style="stroke-width: 2; stroke-dasharray: 1, 0;" class="arrowMarkerPath" d="M 1,1 l 9,9 M 10,1 l -9,9"></path></marker><marker orient="auto" markerHeight="11" markerWidth="11" markerUnits="userSpaceOnUse" refY="5.2" refX="-1" viewBox="0 0 11 11" class="marker cross flowchart" id="mermaid-1773657404462_flowchart-crossStart"><path style="stroke-width: 2; stroke-dasharray: 1, 0;" class="arrowMarkerPath" d="M 1,1 l 9,9 M 10,1 l -9,9"></path></marker><g class="root"><g class="clusters"><g id="External" class="cluster default flowchart-label"><rect height="112.75" width="155.296875" y="0" x="0" ry="0" rx="0" style=""></rect><g transform="translate(47.7734375, 0)" class="cluster-label"><text x="29.875" y="13.5" text-anchor="middle" font-family="&quot;trebuchet ms&quot;, verdana, arial, sans-serif" font-size="16" fill="rgb(51, 51, 51)"><tspan x="29.875">External</tspan></text></g></g><g id="Plugin" class="cluster default flowchart-label"><rect height="112.75" width="315.109375" y="0" x="303.78125" ry="0" rx="0" style=""></rect><g transform="translate(384.421875, 0)" class="cluster-label"><text x="76.9140625" y="13.5" text-anchor="middle" font-family="&quot;trebuchet ms&quot;, verdana, arial, sans-serif" font-size="16" fill="rgb(51, 51, 51)"><tspan x="76.9140625">ironclaw-cursor-brain</tspan></text></g></g><g id="Ironclaw" class="cluster default flowchart-label"><rect height="112.75" width="106.28125" y="0" x="869.78125" ry="0" rx="0" style=""></rect><g transform="translate(892.4453125, 0)" class="cluster-label"><text x="30.4765625" y="13.5" text-anchor="middle" font-family="&quot;trebuchet ms&quot;, verdana, arial, sans-serif" font-size="16" fill="rgb(51, 51, 51)"><tspan x="30.4765625">Ironclaw</tspan></text></g></g></g><g class="edgePaths"><path marker-end="url(#mermaid-1773657404462_flowchart-pointEnd)" style="fill:none;" class="edge-thickness-normal edge-pattern-solid flowchart-link LS-A LE-B" id="L-A-B-0" d="M894.781,69.223L890.615,70.477C886.448,71.732,878.115,74.241,853.04,75.495C827.966,76.75,786.151,76.75,744.336,76.75C702.521,76.75,660.706,76.75,636.489,75.932C612.272,75.114,605.654,73.478,602.345,72.66L599.036,71.841"></path><path marker-end="url(#mermaid-1773657404462_flowchart-pointEnd)" style="fill:none;" class="edge-thickness-normal edge-pattern-solid flowchart-link LS-B LE-C" id="L-B-C-0" d="M514.453,70.569L510.286,71.6C506.12,72.63,497.786,74.69,490.324,75.152C482.861,75.614,476.268,74.478,472.972,73.91L469.676,73.341"></path><path marker-end="url(#mermaid-1773657404462_flowchart-pointEnd)" style="fill:none;" class="edge-thickness-normal edge-pattern-solid flowchart-link LS-C LE-D" id="L-C-D-0" d="M328.781,72.441L324.615,73.159C320.448,73.878,312.115,75.314,295.574,76.032C279.034,76.75,254.286,76.75,229.539,76.75C204.792,76.75,180.044,76.75,164.369,76.07C148.694,75.389,142.091,74.029,138.789,73.349L135.488,72.668"></path><path marker-end="url(#mermaid-1773657404462_flowchart-pointEnd)" style="fill:none;" class="edge-thickness-normal edge-pattern-solid flowchart-link LS-D LE-C" id="L-D-C-0" d="M130.297,50.749L134.464,49.957C138.63,49.166,146.964,47.583,163.504,46.791C180.044,46,204.792,46,229.539,46C254.286,46,279.034,46,294.702,46.523C310.37,47.047,316.958,48.094,320.253,48.617L323.547,49.14"></path><path marker-end="url(#mermaid-1773657404462_flowchart-pointEnd)" style="fill:none;" class="edge-thickness-normal edge-pattern-solid flowchart-link LS-C LE-B" id="L-C-B-0" d="M460.383,43.75L465.228,42.458C470.073,41.167,479.763,38.583,487.95,38.57C496.136,38.556,502.82,41.112,506.161,42.39L509.503,43.667"></path><path marker-end="url(#mermaid-1773657404462_flowchart-pointEnd)" style="fill:none;" class="edge-thickness-normal edge-pattern-solid flowchart-link LS-B LE-A" id="L-B-A-0" d="M593.891,51.698L598.057,50.748C602.224,49.798,610.557,47.899,635.632,46.95C660.706,46,702.521,46,744.336,46C786.151,46,827.966,46,852.189,46.92C876.412,47.841,883.043,49.681,886.359,50.601L889.674,51.522"></path></g><g class="edgeLabels"><g transform="translate(744.3359375, 76.75)" class="edgeLabel"><g transform="translate(-100.4453125, -9.5)" class="label"><text x="100.4453125" y="13.5" text-anchor="middle" font-family="&quot;trebuchet ms&quot;, verdana, arial, sans-serif" font-size="16" fill="rgb(51, 51, 51)"><tspan x="100.4453125">POST /v1/chat/completions</tspan></text></g></g><g class="edgeLabel"><g transform="translate(0, 0)" class="label"></g></g><g transform="translate(229.5390625, 76.75)" class="edgeLabel"><g transform="translate(-49.2421875, -9.5)" class="label"><text x="49.2421875" y="13.5" text-anchor="middle" font-family="&quot;trebuchet ms&quot;, verdana, arial, sans-serif" font-size="16" fill="rgb(51, 51, 51)"><tspan x="49.2421875">stdin / stdout</tspan></text></g></g><g class="edgeLabel"><g transform="translate(0, 0)" class="label"></g></g><g class="edgeLabel"><g transform="translate(0, 0)" class="label"></g></g><g class="edgeLabel"><g transform="translate(0, 0)" class="label"></g></g></g><g class="nodes"><g transform="translate(77.6484375, 60.75)" id="flowchart-D-3" class="node default default flowchart-label"><rect height="34" width="105.296875" y="-17" x="-52.6484375" ry="0" rx="0" style="" class="basic label-container"></rect><g transform="translate(-45.1484375, -9.5)" style="" class="label"><rect></rect><text x="45.1484375" y="13.5" text-anchor="middle" font-family="&quot;trebuchet ms&quot;, verdana, arial, sans-serif" font-size="16" fill="rgb(51, 51, 51)"><tspan x="45.1484375">cursor-agent</tspan></text></g></g><g transform="translate(554.171875, 60.75)" id="flowchart-B-1" class="node default default flowchart-label"><rect height="34" width="79.4375" y="-17" x="-39.71875" ry="0" rx="0" style="" class="basic label-container"></rect><g transform="translate(-32.21875, -9.5)" style="" class="label"><rect></rect><text x="32.21875" y="13.5" text-anchor="middle" font-family="&quot;trebuchet ms&quot;, verdana, arial, sans-serif" font-size="16" fill="rgb(51, 51, 51)"><tspan x="32.21875">HTTP API</tspan></text></g></g><g transform="translate(396.6171875, 60.75)" id="flowchart-C-2" class="node default default flowchart-label"><rect height="34" width="135.671875" y="-17" x="-67.8359375" ry="0" rx="0" style="" class="basic label-container"></rect><g transform="translate(-60.3359375, -9.5)" style="" class="label"><rect></rect><text x="60.3359375" y="13.5" text-anchor="middle" font-family="&quot;trebuchet ms&quot;, verdana, arial, sans-serif" font-size="16" fill="rgb(51, 51, 51)"><tspan x="60.3359375">Completion logic</tspan></text></g></g><g transform="translate(922.921875, 60.75)" id="flowchart-A-0" class="node default default flowchart-label"><rect height="34" width="56.28125" y="-17" x="-28.140625" ry="0" rx="0" style="" class="basic label-container"></rect><g transform="translate(-20.640625, -9.5)" style="" class="label"><rect></rect><text x="20.640625" y="13.5" text-anchor="middle" font-family="&quot;trebuchet ms&quot;, verdana, arial, sans-serif" font-size="16" fill="rgb(51, 51, 51)"><tspan x="20.640625">Agent</tspan></text></g></g></g></g></g></svg>